<?xml version="1.0" encoding="utf-8"?>
<!-- Generator: Adobe Illustrator 16.0.0, SVG Export Plug-In . SVG Version: 6.00 Build 0)  -->
<!DOCTYPE svg PUBLIC "-//W3C//DTD SVG 1.1//EN" "http://www.w3.org/Graphics/SVG/1.1/DTD/svg11.dtd">
<svg version="1.1" id="Layer_1" xmlns="http://www.w3.org/2000/svg" xmlns:xlink="http://www.w3.org/1999/xlink" x="0px" y="0px"
	 width="220px" height="220px" viewBox="0 0 220 220" enable-background="new 0 0 220 220" xml:space="preserve">
<g>
	<path fill="none" d="M14.415,109.494c0-15.798,3.802-30.708,10.541-43.865c-6.74,13.158-10.542,28.068-10.542,43.867h0.001V109.494
		z"/>
	<polygon fill="none" points="207.121,109.496 207.121,109.495 207.121,109.496 	"/>
	<path fill="none" d="M196.598,153.326c6.729-13.148,10.523-28.047,10.523-43.831l0,0
		C207.121,125.279,203.326,140.178,196.598,153.326z"/>
	<path fill="none" d="M196.58,153.361c-0.148,0.289-0.305,0.574-0.455,0.863C196.275,153.936,196.432,153.65,196.58,153.361z"/>
	<path fill="none" d="M27.939,60.25c0.142-0.239,0.28-0.48,0.425-0.718C28.219,59.769,28.081,60.01,27.939,60.25z"/>
	<path fill="none" d="M14.415,109.496L14.415,109.496c-0.001,53.215,43.139,96.355,96.354,96.355l0,0
		C57.553,205.851,14.415,162.713,14.415,109.496z"/>
	<path fill="none" d="M193.813,158.375c0.514-0.871,1.016-1.748,1.504-2.635C194.83,156.627,194.326,157.504,193.813,158.375z"/>
	<polygon fill="none" points="110.768,205.851 110.768,205.851 110.768,205.851 	"/>
	<path fill="#E9AC21" d="M196.125,154.225c0.15-0.289,0.307-0.574,0.455-0.863c0.006-0.012,0.012-0.023,0.018-0.035
		c6.729-13.148,10.523-28.047,10.523-43.831h-96.353v96.355l0,0c35.373,0,66.287-19.065,83.044-47.476
		c0.514-0.871,1.018-1.748,1.504-2.635C195.59,155.238,195.859,154.732,196.125,154.225z"/>
	<path fill="#1A1A1A" d="M196.125,154.225c-0.266,0.508-0.535,1.014-0.809,1.516C195.59,155.238,195.859,154.732,196.125,154.225z"
		/>
	<path fill="#1A1A1A" d="M24.956,65.629c0.937-1.829,1.936-3.621,2.983-5.379C26.891,62.008,25.892,63.8,24.956,65.629z"/>
	<path fill="#1A1A1A" d="M196.598,153.326c-0.006,0.012-0.012,0.023-0.018,0.035C196.586,153.35,196.592,153.338,196.598,153.326z"
		/>
	<path fill="#1A1A1A" d="M110.768,13.141c53.214,0,96.353,43.139,96.353,96.354c0-0.001,0-0.001,0-0.001
		C207.121,56.279,163.982,13.14,110.768,13.141c-34.922-0.001-65.506,18.578-82.404,46.39
		C45.262,31.719,75.846,13.141,110.768,13.141z"/>
	<path fill="#F1F2F2" d="M14.415,109.496h96.354V13.141c-34.922,0-65.506,18.578-82.404,46.39c-0.145,0.238-0.283,0.479-0.425,0.718
		c-1.048,1.759-2.047,3.55-2.983,5.379c-6.739,13.157-10.541,28.067-10.541,43.865V109.496z"/>
	<path fill="#ED1C24" d="M110.768,13.141v96.354h96.353v-0.001C207.121,56.28,163.982,13.141,110.768,13.141z"/>
	<path fill="#1A1A1A" d="M110.768,205.851v-96.355H14.415C14.415,162.713,57.553,205.851,110.768,205.851z"/>
</g>
<linearGradient id="SVGID_1_" gradientUnits="userSpaceOnUse" x1="78.0864" y1="92.5718" x2="172.8733" y2="187.3586">
	<stop  offset="0" style="stop-color:#000000"/>
	<stop  offset="0.2057" style="stop-color:#303030;stop-opacity:0.7943"/>
	<stop  offset="0.6704" style="stop-color:#A7A7A7;stop-opacity:0.3296"/>
	<stop  offset="1" style="stop-color:#FFFFFF;stop-opacity:0"/>
</linearGradient>
<polygon opacity="0.7" fill="url(#SVGID_1_)" points="123.064,47.592 207.121,136.605 170.396,189.834 106.894,211.337 
	54.13,158.572 "/>
<circle fill="none" stroke="#1E1E1E" stroke-width="17" stroke-miterlimit="10" cx="110.768" cy="109.495" r="96.353"/>
<g>
	<polygon fill="#FFFFFF" points="104.668,54.592 77.347,121.037 69.542,121.037 69.542,139.201 63.089,155.141 76.246,161.434 
		119.225,56.928 118.303,54.592 	"/>
	<polygon points="76.246,161.434 63.089,155.141 69.542,139.201 69.542,121.037 77.347,121.037 104.668,54.592 118.303,54.592 
		119.225,56.928 123.064,47.592 99.979,47.592 72.658,114.037 62.542,114.037 62.542,137.838 54.13,158.615 73.579,167.918 	"/>
	<path fill="#FFFFFF" d="M76.909,161.75l10.626-25.42h46.665l10.078,25.197l14.051-5.531l-6.611-16.814v-18.145h-7.188
		l-25.305-64.109L76.246,161.434L76.909,161.75z M111.125,78.476l16.898,42.561H93.6L111.125,78.476z"/>
	<path opacity="0.2" d="M76.909,161.75l10.626-25.42h46.665l10.078,25.197l14.051-5.531l-6.611-16.814v-18.145h-7.188
		l-25.305-64.109L76.246,161.434L76.909,161.75z M111.125,78.476l16.898,42.561H93.6L111.125,78.476z"/>
	<polygon points="92.195,143.33 129.461,143.33 140.363,170.59 167.404,159.947 158.717,137.855 158.717,114.037 149.291,114.037 
		123.064,47.592 119.225,56.928 144.529,121.037 151.717,121.037 151.717,139.182 158.328,155.996 144.277,161.527 134.199,136.33 
		87.535,136.33 76.909,161.75 76.246,161.434 73.579,167.918 80.528,171.24 	"/>
	<polygon opacity="0.3" points="92.195,143.33 129.461,143.33 140.363,170.59 167.404,159.947 158.717,137.855 158.717,114.037 
		149.291,114.037 123.064,47.592 119.225,56.928 144.529,121.037 151.717,121.037 151.717,139.182 158.328,155.996 144.277,161.527 
		134.199,136.33 87.535,136.33 76.909,161.75 76.246,161.434 73.579,167.918 80.528,171.24 	"/>
	<path d="M111.125,78.476L93.6,121.037h34.423L111.125,78.476z M111.008,97.148l6.705,16.889h-13.66L111.008,97.148z"/>
	<path opacity="0.3" d="M111.125,78.476L93.6,121.037h34.423L111.125,78.476z M111.008,97.148l6.705,16.889h-13.66L111.008,97.148z"
		/>
</g>
</svg>
