<?xml version="1.0" encoding="utf-8"?>
<!-- Generator: Adobe Illustrator 16.0.0, SVG Export Plug-In . SVG Version: 6.00 Build 0)  -->
<!DOCTYPE svg PUBLIC "-//W3C//DTD SVG 1.1//EN" "http://www.w3.org/Graphics/SVG/1.1/DTD/svg11.dtd">
<svg version="1.1" id="Layer_1" xmlns="http://www.w3.org/2000/svg" xmlns:xlink="http://www.w3.org/1999/xlink" x="0px" y="0px"
	 width="220px" height="220px" viewBox="0 0 220 220" enable-background="new 0 0 220 220" xml:space="preserve">
<g>
	<path fill="none" d="M12.784,109.118c0-15.798,3.803-30.708,10.541-43.865c-6.739,13.158-10.541,28.068-10.541,43.867l0,0V109.118z
		"/>
	<polygon fill="none" points="205.492,109.12 205.492,109.119 205.492,109.12 	"/>
	<path fill="none" d="M194.967,152.951c6.729-13.148,10.525-28.047,10.525-43.832l0,0
		C205.492,124.904,201.695,139.803,194.967,152.951z"/>
	<path fill="none" d="M194.951,152.986c-0.148,0.289-0.305,0.574-0.455,0.863C194.646,153.561,194.803,153.275,194.951,152.986z"/>
	<path fill="none" d="M26.309,59.874c0.142-0.239,0.279-0.48,0.424-0.719C26.588,59.393,26.451,59.634,26.309,59.874z"/>
	<path fill="none" d="M12.784,109.12L12.784,109.12c0,53.216,43.139,96.355,96.353,96.355l0,0
		C55.923,205.475,12.785,162.338,12.784,109.12z"/>
	<path fill="none" d="M192.184,158c0.514-0.871,1.016-1.748,1.502-2.635C193.199,156.252,192.697,157.129,192.184,158z"/>
	<polygon fill="none" points="109.137,205.475 109.139,205.475 109.137,205.475 	"/>
	<path fill="#E9AC21" d="M194.496,153.85c0.15-0.289,0.307-0.574,0.455-0.863c0.006-0.012,0.012-0.023,0.016-0.035
		c6.729-13.148,10.525-28.047,10.525-43.832h-96.355v96.355c0,0,0,0,0.002,0c35.371,0,66.287-19.064,83.045-47.475
		c0.514-0.871,1.016-1.748,1.502-2.635C193.961,154.863,194.229,154.357,194.496,153.85z"/>
	<path fill="#1A1A1A" d="M194.496,153.85c-0.268,0.508-0.535,1.014-0.811,1.516C193.961,154.863,194.229,154.357,194.496,153.85z"/>
	<path fill="#1A1A1A" d="M23.325,65.252c0.938-1.828,1.936-3.62,2.984-5.379C25.26,61.632,24.262,63.424,23.325,65.252z"/>
	<path fill="#1A1A1A" d="M194.967,152.951c-0.004,0.012-0.01,0.023-0.016,0.035C194.957,152.975,194.963,152.963,194.967,152.951z"
		/>
	<path fill="#1A1A1A" d="M109.137,12.765c53.215,0,96.355,43.139,96.355,96.354v-0.001c0-53.215-43.139-96.354-96.354-96.354
		c-34.923,0-65.506,18.578-82.406,46.391C43.632,31.343,74.215,12.765,109.137,12.765z"/>
	<path fill="#F1F2F2" d="M12.784,109.12h96.353V12.765c-34.921,0-65.504,18.578-82.404,46.39c-0.145,0.238-0.282,0.479-0.424,0.719
		c-1.049,1.759-2.047,3.551-2.984,5.379C16.586,78.41,12.784,93.32,12.784,109.118V109.12z"/>
	<path fill="#ED1C24" d="M109.137,12.765v96.354h96.355v-0.001C205.492,55.904,162.352,12.765,109.137,12.765z"/>
	<path fill="#1A1A1A" d="M109.137,205.475V109.12H12.784C12.785,162.338,55.923,205.475,109.137,205.475z"/>
</g>
<linearGradient id="SVGID_1_" gradientUnits="userSpaceOnUse" x1="111.4023" y1="106.5942" x2="182.671" y2="177.8629">
	<stop  offset="0" style="stop-color:#000000"/>
	<stop  offset="0.0886" style="stop-color:#070707;stop-opacity:0.9114"/>
	<stop  offset="0.2165" style="stop-color:#1A1A1A;stop-opacity:0.7835"/>
	<stop  offset="0.3683" style="stop-color:#3A3A3A;stop-opacity:0.6317"/>
	<stop  offset="0.5385" style="stop-color:#656565;stop-opacity:0.4615"/>
	<stop  offset="0.7239" style="stop-color:#9E9E9E;stop-opacity:0.2761"/>
	<stop  offset="0.9193" style="stop-color:#E1E1E1;stop-opacity:0.0807"/>
	<stop  offset="1" style="stop-color:#FFFFFF;stop-opacity:0"/>
</linearGradient>
<polygon opacity="0.5" fill="url(#SVGID_1_)" points="160.508,57.488 206.951,103.932 182.439,178.094 115.115,208.52 
	62.504,155.908 "/>
<circle fill="none" stroke="#1E1E1E" stroke-width="17" stroke-miterlimit="10" cx="109.138" cy="109.119" r="96.354"/>
<path fill="#8B5E3C" d="M160.252,57.865c-2.832-2.832-5.453-4.804-10.258,0l-46.072,46.074c-2.834,2.833-2.832,7.424,0,10.258
	L160.252,57.865z"/>
<path fill="#754C29" d="M160.779,56.978c2.834,2.833,4.805,5.453,0,10.258l-46.074,46.075c-2.832,2.832-7.424,2.832-10.256,0
	L160.779,56.978z"/>
<path d="M102.508,115.611c-3.607-3.607-3.609-9.479,0-13.086l46.072-46.074c6.543-6.543,10.801-2.286,13.088,0.001
	c2.76,2.762,6.543,6.543,0,13.086l-46.074,46.074C111.984,119.221,106.115,119.221,102.508,115.611z M158.838,59.28
	c-2.395-2.396-3.715-3.715-7.428,0l-46.074,46.073c-2.049,2.048-2.049,5.381,0,7.43c2.049,2.049,5.381,2.049,7.43,0l46.072-46.075
	C162.553,62.995,161.617,62.059,158.838,59.28z"/>
<path d="M62.572,155.818c-5.837-5.836-10.847-28.609-8.454-35.189c1.611-4.432,13.771-15.28,17.243-18.715
	c15.215-15.06,17.19-14.454,18.25-14.129c0.41,0.126,0.779,0.351,1.1,0.67c1.355,1.356,1.656,4.419,2.109,10.166
	c0.242,3.061,0.635,8.015,1.355,9.584c1.352-0.582,4.199-3.776,5.479-5.21c2.609-2.93,3.92-4.399,5.668-4.087
	c0.543,0.097,1.039,0.356,1.438,0.754c0.838,0.839,1.047,2.062,1.291,3.479c0.289,1.68,0.648,3.771,2.037,5.161
	c1.316,1.315,3.389,1.639,5.053,1.899c1.455,0.227,2.713,0.422,3.572,1.284c0.516,0.516,0.801,1.203,0.801,1.934
	c0,1.645-1.504,2.986-4.234,5.42c-1.4,1.248-4.51,4.023-5.09,5.383c1.557,0.715,6.516,1.105,9.58,1.35
	c5.748,0.455,8.809,0.754,10.164,2.109c0.32,0.32,0.545,0.689,0.672,1.1c0.375,1.223,0.889,2.896-14.328,17.898
	c-6.879,6.781-15.023,15.621-18.201,17.449C91.475,167.924,68.303,161.551,62.572,155.818z M88.111,92.26
	c-6.082,4.083-28.47,24.882-30.235,29.736c-1.939,5.332,2.789,26.26,7.523,30.994c4.738,4.738,26.176,10.26,30.68,7.67
	c5.063-2.91,25.766-24.488,29.996-30.391c-1.654-0.318-4.539-0.549-6.621-0.713c-6.566-0.52-10.678-0.959-12.422-2.701
	c-0.002-0.002-0.002-0.002-0.002-0.002c-0.504-0.504-0.816-1.119-0.904-1.779c-0.406-3.072,3.1-6.199,6.49-9.223
	c0.592-0.525,1.293-1.15,1.873-1.703c-2.002-0.313-5.004-0.793-7.23-3.018c-2.221-2.222-2.775-5.133-3.119-7.132
	c-0.496,0.529-1.039,1.138-1.5,1.657c-3.074,3.447-6.252,7.012-9.324,6.608c-0.66-0.088-1.275-0.4-1.779-0.906
	c-1.744-1.743-2.186-5.855-2.703-12.42C88.668,96.832,88.436,93.906,88.111,92.26z"/>
<path fill="#BCBEC0" d="M108.178,109.942c3.244,3.065,8.418,2.015,8.695,3.575c0.283,1.584-9.855,7.973-9.402,11.395
	s19.836,2.117,20.582,4.553c0.748,2.436-25.635,30.854-31.613,33.027c-5.932,2.158-27.495-2.678-32.952-7.859L108.178,109.942z"/>
<path fill="#E6E7E8" d="M108.695,109.425c-3.066-3.243-2.014-8.417-3.576-8.695c-1.584-0.282-7.971,9.855-11.393,9.404
	c-3.422-0.454-2.117-19.837-4.553-20.583c-2.436-0.747-30.854,25.635-33.029,31.616c-2.157,5.93,2.678,27.494,7.859,32.951
	L108.695,109.425z"/>
<path d="M62.719,155.672c-5.836-5.836-10.847-28.609-8.454-35.189c1.611-4.432,13.772-15.28,17.243-18.715
	c15.216-15.06,17.191-14.453,18.251-14.129c0.41,0.126,0.779,0.351,1.1,0.671c1.355,1.355,1.654,4.418,2.109,10.166
	c0.242,3.061,0.633,8.014,1.354,9.584c1.354-0.583,4.201-3.777,5.479-5.211c2.611-2.93,3.922-4.399,5.67-4.087
	c0.543,0.097,1.039,0.357,1.436,0.754c0.84,0.839,1.049,2.063,1.293,3.479c0.287,1.679,0.646,3.77,2.037,5.16
	c1.316,1.316,3.387,1.639,5.053,1.899c1.453,0.227,2.711,0.422,3.572,1.284c0.516,0.516,0.799,1.203,0.801,1.934
	c0,1.645-1.504,2.986-4.234,5.42c-1.4,1.248-4.512,4.023-5.09,5.383c1.557,0.715,6.516,1.107,9.58,1.35
	c5.746,0.455,8.809,0.754,10.164,2.109c0.32,0.32,0.545,0.689,0.67,1.1c0.375,1.223,0.889,2.896-14.326,17.898
	c-6.879,6.781-15.025,15.621-18.203,17.449C91.623,167.777,68.451,161.404,62.719,155.672z M88.258,92.114
	c-6.082,4.083-28.468,24.882-30.234,29.736c-1.939,5.332,2.789,26.26,7.523,30.994c4.738,4.738,26.175,10.26,30.681,7.67
	c5.061-2.91,25.764-24.488,29.996-30.391c-1.654-0.318-4.539-0.547-6.623-0.713c-6.564-0.518-10.678-0.959-12.422-2.701
	c0-0.002,0-0.002,0-0.002c-0.504-0.504-0.816-1.119-0.904-1.779c-0.406-3.072,3.1-6.199,6.49-9.223
	c0.59-0.525,1.293-1.15,1.873-1.703c-2.002-0.313-5.006-0.793-7.23-3.018c-2.221-2.222-2.777-5.133-3.121-7.132
	c-0.494,0.529-1.037,1.138-1.5,1.657c-3.072,3.447-6.252,7.014-9.322,6.608c-0.66-0.088-1.275-0.4-1.781-0.906
	c-1.742-1.743-2.184-5.855-2.703-12.42C88.814,96.685,88.584,93.759,88.258,92.114z"/>
<path fill="#939598" d="M112.668,115.684c-3.117,2.779-6.209,5.766-6.496,8.559c-4.34,0.363-11.047,6.619-11.174,6.021
	c-0.121-0.582,11.225-12.955,15.648-17.191c1.35,0.533,2.771,0.787,3.844,0.973C113.961,114.541,113.188,115.223,112.668,115.684z"
	/>
<path fill="#BCBEC0" d="M102.648,105.665c-2.779,3.117-5.766,6.21-8.559,6.498c-0.361,4.34-6.617,11.045-6.02,11.172
	c0.582,0.123,12.955-11.225,17.189-15.648c-0.531-1.351-0.787-2.771-0.973-3.845C103.793,104.371,103.111,105.145,102.648,105.665z"
	/>
</svg>
