<?xml version="1.0" encoding="utf-8"?>
<!-- Generator: Adobe Illustrator 16.0.0, SVG Export Plug-In . SVG Version: 6.00 Build 0)  -->
<!DOCTYPE svg PUBLIC "-//W3C//DTD SVG 1.1//EN" "http://www.w3.org/Graphics/SVG/1.1/DTD/svg11.dtd">
<svg version="1.1" xmlns="http://www.w3.org/2000/svg" xmlns:xlink="http://www.w3.org/1999/xlink" x="0px" y="0px" width="600px"
	 height="100px" viewBox="0 0 600 100" enable-background="new 0 0 600 100" xml:space="preserve">
<g id="Layer_1">
	<g>
		<path d="M56.259,46.074c-1.544-1.45-3.265-2.704-5.161-3.756c-1.896-1.053-3.944-1.58-6.144-1.58c-1.452,0-2.809,0.27-4.073,0.807
			c-1.264,0.539-2.376,1.276-3.335,2.212c-0.96,0.937-1.709,2.025-2.246,3.265c-0.539,1.242-0.808,2.587-0.808,4.037
			c0,1.453,0.291,2.809,0.877,4.074c0.585,1.264,1.369,2.352,2.353,3.264c0.983,0.913,2.117,1.641,3.405,2.177
			c1.287,0.538,2.656,0.808,4.108,0.808c2.246,0,4.259-0.443,6.038-1.334c1.778-0.889,3.441-2.082,4.985-3.58l-0.562,19.8
			c-0.797,0.375-1.791,0.691-2.984,0.949c-1.193,0.256-2.435,0.479-3.721,0.665c-1.289,0.188-2.563,0.317-3.828,0.387
			c-1.264,0.071-2.316,0.105-3.159,0.105c-3.792,0-7.314-0.69-10.567-2.071c-3.254-1.379-6.098-3.276-8.531-5.688
			c-2.435-2.411-4.343-5.241-5.723-8.496c-1.381-3.253-2.072-6.776-2.072-10.567c0-3.837,0.714-7.455,2.143-10.849
			c1.427-3.393,3.381-6.342,5.863-8.846c2.48-2.505,5.406-4.482,8.776-5.935c3.371-1.45,6.998-2.176,10.884-2.176
			c2.199,0,4.389,0.188,6.565,0.562c2.177,0.375,4.294,0.913,6.354,1.614L56.259,46.074z"/>
		<path d="M63.069,24.587h19.238v35.952h16.15V77.53H63.069V24.587z"/>
		<path d="M220.419,24.587h22.398c2.574,0,5.102,0.188,7.584,0.562c2.48,0.375,4.692,1.101,6.634,2.177
			c1.942,1.077,3.512,2.574,4.706,4.494c1.193,1.919,1.79,4.4,1.79,7.443c0,2.342-0.574,4.518-1.721,6.53
			c-1.147,2.013-2.892,3.395-5.23,4.143v0.421c2.902,1.029,5.195,2.587,6.881,4.67c1.686,2.082,2.527,4.716,2.527,7.898
			c0,2.715-0.573,5.01-1.72,6.881c-1.147,1.874-2.646,3.382-4.494,4.529c-1.85,1.147-3.932,1.966-6.249,2.457
			c-2.317,0.492-4.623,0.737-6.916,0.737h-26.19V24.587z M240.009,44.95c0.702,0,1.404-0.035,2.107-0.105
			c0.701-0.069,1.344-0.233,1.931-0.491c0.584-0.257,1.052-0.643,1.403-1.158c0.352-0.515,0.527-1.24,0.527-2.177
			c0-0.983-0.2-1.72-0.597-2.211c-0.398-0.492-0.914-0.843-1.545-1.054c-0.632-0.21-1.324-0.327-2.072-0.351
			c-0.749-0.022-1.475-0.035-2.177-0.035h-1.334v7.583H240.009z M238.253,64.893h2.178c0.795,0,1.638-0.023,2.527-0.07
			c0.889-0.047,1.72-0.211,2.492-0.492c0.772-0.28,1.416-0.725,1.932-1.334c0.515-0.607,0.771-1.451,0.771-2.527
			c0-1.125-0.27-1.979-0.807-2.563c-0.538-0.585-1.218-1.006-2.036-1.264c-0.819-0.256-1.697-0.41-2.634-0.457
			c-0.937-0.045-1.779-0.069-2.527-0.069h-1.896V64.893z"/>
		<path d="M299.622,23.745c4.024,0,7.816,0.657,11.375,1.966c3.557,1.311,6.657,3.159,9.303,5.547
			c2.646,2.387,4.74,5.266,6.285,8.637c1.544,3.37,2.316,7.139,2.316,11.304c0,4.262-0.772,8.064-2.316,11.41
			c-1.545,3.349-3.64,6.191-6.285,8.531c-2.646,2.342-5.746,4.133-9.303,5.372c-3.559,1.239-7.351,1.86-11.375,1.86
			c-4.026,0-7.818-0.621-11.376-1.86c-3.557-1.239-6.659-3.03-9.304-5.372c-2.645-2.34-4.739-5.183-6.283-8.531
			c-1.545-3.346-2.317-7.148-2.317-11.41c0-4.165,0.772-7.934,2.317-11.304c1.544-3.372,3.639-6.25,6.283-8.637
			c2.645-2.388,5.747-4.236,9.304-5.547C291.804,24.402,295.596,23.745,299.622,23.745z M299.622,41.158
			c-1.545,0-2.927,0.27-4.143,0.809c-1.218,0.539-2.248,1.287-3.091,2.246c-0.842,0.961-1.499,2.061-1.966,3.3
			c-0.468,1.242-0.702,2.563-0.702,3.968c0,3.044,0.913,5.502,2.738,7.372c1.826,1.874,4.213,2.809,7.163,2.809
			c2.949,0,5.336-0.935,7.161-2.809c1.826-1.87,2.739-4.328,2.739-7.372c0-1.405-0.235-2.726-0.702-3.968
			c-0.469-1.239-1.123-2.339-1.967-3.3c-0.842-0.958-1.873-1.707-3.089-2.246C302.547,41.428,301.166,41.158,299.622,41.158z"/>
		<path d="M338.872,58.573l0.983,0.771c1.73,1.359,3.604,2.506,5.617,3.441c2.011,0.938,4.143,1.404,6.39,1.404
			c0.467,0,0.993-0.046,1.58-0.14c0.584-0.094,1.122-0.27,1.614-0.527c0.491-0.257,0.9-0.584,1.229-0.983
			c0.327-0.396,0.491-0.9,0.491-1.51c0-0.607-0.14-1.088-0.421-1.439c-0.28-0.351-0.631-0.619-1.054-0.807
			c-0.42-0.187-0.889-0.326-1.403-0.422c-0.516-0.092-0.982-0.186-1.405-0.279l-3.86-0.703c-1.873-0.327-3.651-0.854-5.336-1.58
			c-1.687-0.725-3.161-1.674-4.425-2.844c-1.265-1.17-2.259-2.551-2.984-4.142c-0.727-1.591-1.089-3.417-1.089-5.478
			c0-3.136,0.655-5.921,1.967-8.356c1.311-2.433,3.043-4.482,5.195-6.144c2.153-1.661,4.6-2.925,7.338-3.792
			c2.738-0.866,5.559-1.299,8.461-1.299c6.084,0,11.68,1.545,16.782,4.634l-5.196,13.552c-1.639-1.124-3.383-2.071-5.231-2.844
			c-1.85-0.771-3.826-1.158-5.933-1.158c-0.422,0-0.878,0.047-1.369,0.141c-0.492,0.094-0.938,0.246-1.334,0.456
			c-0.398,0.21-0.737,0.492-1.019,0.842c-0.281,0.351-0.421,0.808-0.421,1.37c0,0.516,0.128,0.912,0.386,1.193
			c0.256,0.281,0.585,0.516,0.983,0.702c0.396,0.188,0.818,0.328,1.264,0.422c0.444,0.094,0.854,0.188,1.229,0.281l4.353,0.983
			c2.014,0.468,3.886,1.1,5.618,1.896c1.731,0.797,3.218,1.803,4.46,3.019c1.239,1.217,2.211,2.668,2.913,4.354
			c0.702,1.687,1.053,3.651,1.053,5.897c0,3.185-0.656,5.946-1.967,8.285c-1.311,2.342-3.043,4.309-5.194,5.899
			c-2.154,1.592-4.612,2.773-7.374,3.547c-2.762,0.771-5.57,1.157-8.426,1.157c-3.37,0-6.857-0.434-10.462-1.299
			c-3.605-0.865-6.904-2.047-9.9-3.546L338.872,58.573z"/>
		<path d="M397.713,24.587l6.671,31.597h0.42c0.188-1.638,0.398-3.276,0.633-4.915c0.234-1.638,0.562-3.252,0.983-4.845
			l5.617-21.837h14.745l7.232,31.597h0.421c0.141-1.544,0.304-3.112,0.492-4.704c0.187-1.59,0.467-3.135,0.842-4.634l5.337-22.259
			h20.012L442.44,77.53h-16.781l-6.039-28.789h-0.632c-0.094,1.358-0.199,2.704-0.315,4.038c-0.118,1.334-0.341,2.658-0.668,3.967
			l-5.336,20.784h-16.36l-18.537-52.943H397.713z"/>
		<path d="M465.049,24.587h35.601v14.465h-16.22v5.055h14.815v13.764H484.43v5.195h16.781V77.53h-36.162V24.587z"/>
		<path d="M509.145,24.587h19.24v35.952h16.149V77.53h-35.39V24.587z"/>
		<path d="M549.8,24.587h19.238v35.952h16.15V77.53H549.8V24.587z"/>
	</g>
</g>
<g id="Layer_2">
	<g>
		<path fill="#ED1C24" d="M156.632,51.904c-1.08-0.925-2.27-5.047-2.27-11.716c0-6.668,1.459-12.596,2.27-13.29
			c0.811-0.695,51.665-0.742,52.529,0c0.864,0.74,2.054,5.973,2.054,13.29c0,7.317-1.243,11.023-2.054,11.716
			C208.351,52.6,157.713,52.83,156.632,51.904z"/>
		<path d="M180.289,54.67c-23.739,0-24.321-0.498-25.057-1.128c-2.805-2.404-3.023-10.829-3.023-13.354
			c0-5.17,1.05-13.237,3.021-14.925c0.712-0.61,0.881-0.756,10.029-0.92c4.914-0.089,11.392-0.138,18.24-0.138
			c6.678,0,12.885,0.048,17.479,0.133c8.695,0.163,8.883,0.325,9.583,0.925c2.215,1.897,2.806,10.275,2.806,14.925
			c0,6.856-1.049,11.847-2.806,13.353c-0.708,0.605-0.897,0.77-10.806,0.963C194.336,54.609,187.24,54.67,180.289,54.67z
			 M157.874,49.956c2.19,0.212,9.569,0.406,22.415,0.406c13.729,0,24.555-0.215,27.571-0.439c0.44-1.13,1.2-4.133,1.2-9.735
			c0-5.978-0.794-9.859-1.277-11.317c-2.672-0.188-11.184-0.358-24.283-0.358c-13.153,0-22.601,0.176-25.485,0.367
			c-0.589,1.715-1.498,6.202-1.498,11.308C156.517,45.564,157.336,48.815,157.874,49.956z"/>
	</g>
	<g>
		<path fill="#B3B3B3" d="M156.206,69.557c-0.342-0.24-0.717-1.301-0.717-3.02s0.462-3.246,0.717-3.424
			c0.257-0.18,16.312-0.191,16.584,0c0.274,0.191,0.649,1.539,0.649,3.424s-0.394,2.84-0.649,3.02
			C172.535,69.734,156.548,69.794,156.206,69.557z"/>
		<path d="M163.681,71.866c-7.925,0-8.044-0.083-8.705-0.542c-1.355-0.95-1.64-3.127-1.64-4.787c0-0.414,0.047-4.076,1.637-5.189
			c0.668-0.467,0.753-0.527,9.714-0.527c8.584,0,8.67,0.061,9.338,0.527c1.297,0.908,1.568,3.323,1.568,5.189
			c0,1.682-0.271,3.876-1.566,4.783C173.362,71.783,173.244,71.866,163.681,71.866z M157.699,67.501
			c1.151,0.032,3.156,0.058,5.981,0.058c3.244,0,6.023-0.031,7.558-0.072c0.027-0.256,0.047-0.572,0.047-0.949
			c0-0.543-0.036-0.998-0.082-1.355c-1.313-0.029-3.571-0.053-6.517-0.053c-3.07,0-5.529,0.025-6.927,0.058
			c-0.064,0.378-0.116,0.845-0.116,1.351C157.644,66.926,157.668,67.246,157.699,67.501z"/>
	</g>
	<g>
		<path fill="#ED1C24" d="M149,69.584c0,0,0-38.734,0-41.983c-1-1.833-15.814-1.563-17.709,0.333
			c-1.895,1.895-2.513,8.862-4.313,10.664c-1.802,1.802-16.212,2.89-17.778,4.458c-1.567,1.567-2.419,26.277-1.479,26.36
			c1.913,0.169,6.344,0,6.344,0s0.461-11.194,11.708-11.194c11.248,0,11.536,11.49,11.536,11.49L149,69.584z"/>
		<path d="M135.662,71.887l-0.213-2.086c-0.047-0.979-0.768-9.427-9.604-9.427c-9.075,0-9.571,8.757-9.586,9.129l-0.098,1.988
			l-1.997,0.076c-0.082,0.002-2.031,0.076-3.928,0.076c-1.169,0-2.049-0.027-2.685-0.083c-0.894-0.079-1.623-0.663-1.948-1.56
			c-0.736-2.022-0.266-12.15-0.164-14.159c0.643-12.675,1.664-13.699,2.276-14.31c1.133-1.133,3.521-1.633,9.559-2.668
			c2.739-0.471,7.293-1.252,8.31-1.846c0.492-0.598,1.146-2.861,1.54-4.232c0.746-2.583,1.449-5.024,2.802-6.375
			c1.99-1.991,8.698-2.205,11.49-2.205c7.664,0,9.288,1.444,9.733,1.918L152,26.747v44.968L135.662,71.887z M125.777,56.066
			c9.117,0,12.605,6.643,13.52,11.471L147,67.453V28.978c-1-0.232-2.859-0.463-5.666-0.463c-4.424,0-7.68,0.572-8.457,1.001
			c-0.555,0.657-1.194,2.939-1.635,4.466c-0.721,2.498-1.392,4.857-2.673,6.139c-1.282,1.281-4.202,1.895-10.571,2.989
			c-2.385,0.409-5.875,1.009-7.105,1.471c-0.916,3.132-1.613,17.908-1.354,22.751c0.208,0.003,0.438,0.004,0.692,0.004
			c0.661,0,1.338-0.01,1.931-0.021C113.072,62.59,116.645,56.066,125.777,56.066z"/>
	</g>
	<g>
		<circle fill="#B3B3B3" cx="125.557" cy="69.584" r="6.428"/>
		<path d="M125.557,78.166c-4.732,0-8.582-3.85-8.582-8.582s3.85-8.582,8.582-8.582s8.582,3.85,8.582,8.582
			S130.289,78.166,125.557,78.166z M125.557,65.31c-2.356,0-4.274,1.917-4.274,4.274s1.918,4.274,4.274,4.274
			c2.357,0,4.274-1.917,4.274-4.274S127.914,65.31,125.557,65.31z"/>
	</g>
	<g>
		<circle fill="#B3B3B3" cx="185.329" cy="69.584" r="6.428"/>
		<path d="M185.328,78.166c-4.731,0-8.582-3.85-8.582-8.582s3.851-8.582,8.582-8.582c4.732,0,8.582,3.85,8.582,8.582
			S190.061,78.166,185.328,78.166z M185.328,65.31c-2.357,0-4.274,1.917-4.274,4.274s1.917,4.274,4.274,4.274
			s4.274-1.917,4.274-4.274S187.686,65.31,185.328,65.31z"/>
	</g>
	<g>
		<circle fill="#B3B3B3" cx="204.819" cy="69.584" r="6.429"/>
		<path d="M204.819,78.166c-4.732,0-8.582-3.85-8.582-8.582s3.85-8.582,8.582-8.582s8.582,3.85,8.582,8.582
			S209.552,78.166,204.819,78.166z M204.819,65.31c-2.357,0-4.274,1.917-4.274,4.274s1.917,4.274,4.274,4.274
			s4.275-1.917,4.275-4.274S207.177,65.31,204.819,65.31z"/>
	</g>
	<path d="M211.347,60h-56.862c-1.189,0-2.153-0.811-2.153-2s0.964-2,2.153-2h56.862c1.19,0,2.154,0.811,2.154,2
		S212.537,60,211.347,60z"/>
</g>
</svg>
