<?xml version="1.0" encoding="utf-8"?>
<!-- Generator: Adobe Illustrator 18.1.1, SVG Export Plug-In . SVG Version: 6.00 Build 0)  -->
<svg version="1.1" id="Layer_1" xmlns="http://www.w3.org/2000/svg" xmlns:xlink="http://www.w3.org/1999/xlink" x="0px" y="0px"
	 viewBox="50 126 600 150" enable-background="new 50 126 600 150" xml:space="preserve">
<g id="Layer_1_1_">
	<g>
		<path fill="#FFFFFF" d="M106.3,178.1c-1.5-1.5-3.3-2.7-5.2-3.8c-1.9-1.1-3.9-1.6-6.1-1.6c-1.5,0-2.8,0.3-4.1,0.8
			c-1.3,0.5-2.4,1.3-3.3,2.2c-1,0.9-1.7,2-2.2,3.3c-0.5,1.2-0.8,2.6-0.8,4c0,1.5,0.3,2.8,0.9,4.1c0.6,1.3,1.4,2.4,2.4,3.3
			c1,0.9,2.1,1.6,3.4,2.2c1.3,0.5,2.7,0.8,4.1,0.8c2.2,0,4.3-0.4,6-1.3c1.8-0.9,3.4-2.1,5-3.6l-0.6,19.8c-0.8,0.4-1.8,0.7-3,0.9
			c-1.2,0.3-2.4,0.5-3.7,0.7c-1.3,0.2-2.6,0.3-3.8,0.4c-1.3,0.1-2.3,0.1-3.2,0.1c-3.8,0-7.3-0.7-10.6-2.1c-3.3-1.4-6.1-3.3-8.5-5.7
			c-2.4-2.4-4.3-5.2-5.7-8.5c-1.4-3.3-2.1-6.8-2.1-10.6c0-3.8,0.7-7.5,2.1-10.8c1.4-3.4,3.4-6.3,5.9-8.8c2.5-2.5,5.4-4.5,8.8-5.9
			c3.4-1.4,7-2.2,10.9-2.2c2.2,0,4.4,0.2,6.6,0.6c2.2,0.4,4.3,0.9,6.4,1.6L106.3,178.1z"/>
		<path fill="#FFFFFF" d="M113.1,156.6h19.2v36h16.1v17h-35.4V156.6z"/>
		<path fill="#FFFFFF" d="M270.4,156.6h22.4c2.6,0,5.1,0.2,7.6,0.6c2.5,0.4,4.7,1.1,6.6,2.2c1.9,1.1,3.5,2.6,4.7,4.5
			c1.2,1.9,1.8,4.4,1.8,7.4c0,2.3-0.6,4.5-1.7,6.5c-1.1,2-2.9,3.4-5.2,4.1v0.4c2.9,1,5.2,2.6,6.9,4.7c1.7,2.1,2.5,4.7,2.5,7.9
			c0,2.7-0.6,5-1.7,6.9c-1.1,1.9-2.6,3.4-4.5,4.5c-1.9,1.1-3.9,2-6.2,2.5c-2.3,0.5-4.6,0.7-6.9,0.7h-26.2V156.6L270.4,156.6z
			 M290,176.9c0.7,0,1.4,0,2.1-0.1c0.7-0.1,1.3-0.2,1.9-0.5c0.6-0.3,1.1-0.6,1.4-1.2c0.4-0.5,0.5-1.2,0.5-2.2c0-1-0.2-1.7-0.6-2.2
			c-0.4-0.5-0.9-0.8-1.5-1.1c-0.6-0.2-1.3-0.3-2.1-0.4c-0.7,0-1.5,0-2.2,0h-1.3v7.6L290,176.9L290,176.9z M288.3,196.9h2.2
			c0.8,0,1.6,0,2.5-0.1c0.9,0,1.7-0.2,2.5-0.5c0.8-0.3,1.4-0.7,1.9-1.3c0.5-0.6,0.8-1.5,0.8-2.5c0-1.1-0.3-2-0.8-2.6
			c-0.5-0.6-1.2-1-2-1.3c-0.8-0.3-1.7-0.4-2.6-0.5c-0.9,0-1.8-0.1-2.5-0.1h-1.9V196.9z"/>
		<path fill="#FFFFFF" d="M349.6,155.7c4,0,7.8,0.7,11.4,2c3.6,1.3,6.7,3.2,9.3,5.5c2.6,2.4,4.7,5.3,6.3,8.6
			c1.5,3.4,2.3,7.1,2.3,11.3c0,4.3-0.8,8.1-2.3,11.4c-1.5,3.3-3.6,6.2-6.3,8.5c-2.6,2.3-5.7,4.1-9.3,5.4c-3.6,1.2-7.4,1.9-11.4,1.9
			c-4,0-7.8-0.6-11.4-1.9c-3.6-1.2-6.7-3-9.3-5.4c-2.6-2.3-4.7-5.2-6.3-8.5c-1.5-3.3-2.3-7.1-2.3-11.4c0-4.2,0.8-7.9,2.3-11.3
			c1.5-3.4,3.6-6.3,6.3-8.6c2.6-2.4,5.7-4.2,9.3-5.5C341.8,156.4,345.6,155.7,349.6,155.7z M349.6,173.2c-1.5,0-2.9,0.3-4.1,0.8
			c-1.2,0.5-2.2,1.3-3.1,2.2c-0.8,1-1.5,2.1-2,3.3c-0.5,1.2-0.7,2.6-0.7,4c0,3,0.9,5.5,2.7,7.4c1.8,1.9,4.2,2.8,7.2,2.8
			c2.9,0,5.3-0.9,7.2-2.8c1.8-1.9,2.7-4.3,2.7-7.4c0-1.4-0.2-2.7-0.7-4c-0.5-1.2-1.1-2.3-2-3.3c-0.8-1-1.9-1.7-3.1-2.2
			C352.5,173.4,351.2,173.2,349.6,173.2z"/>
		<path fill="#FFFFFF" d="M388.9,190.6l1,0.8c1.7,1.4,3.6,2.5,5.6,3.4c2,0.9,4.1,1.4,6.4,1.4c0.5,0,1,0,1.6-0.1
			c0.6-0.1,1.1-0.3,1.6-0.5c0.5-0.3,0.9-0.6,1.2-1c0.3-0.4,0.5-0.9,0.5-1.5c0-0.6-0.1-1.1-0.4-1.4c-0.3-0.4-0.6-0.6-1.1-0.8
			c-0.4-0.2-0.9-0.3-1.4-0.4c-0.5-0.1-1-0.2-1.4-0.3l-3.9-0.7c-1.9-0.3-3.7-0.9-5.3-1.6c-1.7-0.7-3.2-1.7-4.4-2.8
			c-1.3-1.2-2.3-2.6-3-4.1c-0.7-1.6-1.1-3.4-1.1-5.5c0-3.1,0.7-5.9,2-8.4c1.3-2.4,3-4.5,5.2-6.1c2.2-1.7,4.6-2.9,7.3-3.8
			c2.7-0.9,5.6-1.3,8.5-1.3c6.1,0,11.7,1.5,16.8,4.6l-5.2,13.6c-1.6-1.1-3.4-2.1-5.2-2.8c-1.9-0.8-3.8-1.2-5.9-1.2
			c-0.4,0-0.9,0-1.4,0.1c-0.5,0.1-0.9,0.2-1.3,0.5c-0.4,0.2-0.7,0.5-1,0.8c-0.3,0.4-0.4,0.8-0.4,1.4c0,0.5,0.1,0.9,0.4,1.2
			c0.3,0.3,0.6,0.5,1,0.7c0.4,0.2,0.8,0.3,1.3,0.4c0.4,0.1,0.9,0.2,1.2,0.3l4.4,1c2,0.5,3.9,1.1,5.6,1.9c1.7,0.8,3.2,1.8,4.5,3
			c1.2,1.2,2.2,2.7,2.9,4.4c0.7,1.7,1.1,3.7,1.1,5.9c0,3.2-0.7,5.9-2,8.3c-1.3,2.3-3,4.3-5.2,5.9c-2.2,1.6-4.6,2.8-7.4,3.5
			c-2.8,0.8-5.6,1.2-8.4,1.2c-3.4,0-6.9-0.4-10.5-1.3c-3.6-0.9-6.9-2-9.9-3.5L388.9,190.6z"/>
		<path fill="#FFFFFF" d="M447.7,156.6l6.7,31.6h0.4c0.2-1.6,0.4-3.3,0.6-4.9c0.2-1.6,0.6-3.3,1-4.8l5.6-21.8h14.7l7.2,31.6h0.4
			c0.1-1.5,0.3-3.1,0.5-4.7c0.2-1.6,0.5-3.1,0.8-4.6l5.3-22.3h20l-18.7,52.9h-16.8l-6-28.8H469c-0.1,1.4-0.2,2.7-0.3,4
			c-0.1,1.3-0.3,2.7-0.7,4l-5.3,20.8h-16.4l-18.5-52.9C427.8,156.6,447.7,156.6,447.7,156.6z"/>
		<path fill="#FFFFFF" d="M515,156.6h35.6v14.5h-16.2v5.1h14.8v13.8h-14.8v5.2h16.8v14.5H515V156.6z"/>
		<path fill="#FFFFFF" d="M559.1,156.6h19.2v36h16.1v17h-35.4L559.1,156.6L559.1,156.6z"/>
		<path fill="#FFFFFF" d="M599.8,156.6H619v36h16.2v17h-35.4V156.6z"/>
	</g>
	<g>
		<path fill="#FFFFFF" d="M84.1,225.8l-1.2,1c-1.3-2.1-3.2-3.2-5.5-3.2c-0.9,0-1.8,0.2-2.6,0.7c-0.8,0.5-1.4,1.1-1.8,1.9
			s-0.7,1.7-0.7,2.6c0,1.2,0.4,2.2,1.3,2.9c0.8,0.7,2.1,1.4,3.6,2.2l5.2,2.7c2.1,1.3,3.1,3.1,3.1,5.4c0,1.5-0.4,2.8-1.2,4
			c-0.8,1.2-1.8,2.2-3.2,2.8c-1.3,0.7-2.7,1-4.1,1c-1.9,0-3.5-0.5-4.9-1.6c-1.4-1.1-2.4-2.5-3.1-4.3l1.5-0.7
			c0.6,1.5,1.5,2.7,2.6,3.6c1.1,0.9,2.4,1.3,4,1.3c1.2,0,2.3-0.3,3.3-0.9s1.8-1.3,2.5-2.3s0.9-2.1,0.9-3.2c0-0.9-0.3-1.7-0.8-2.4
			s-1.1-1.2-1.8-1.6c-0.7-0.4-1.6-0.9-2.9-1.5l-4.9-2.6c-1.9-1.2-2.8-2.8-2.8-4.9c0-1.3,0.3-2.5,0.9-3.6s1.4-1.9,2.5-2.4
			c1.1-0.6,2.3-0.9,3.6-0.9c1.4,0,2.7,0.3,3.9,1S83.4,224.7,84.1,225.8z"/>
		<path fill="#FFFFFF" d="M127.7,224h-11.2v9.9h11v1.6h-11v12.4h11.2v1.6h-13v-27.1h13V224z"/>
		<path fill="#FFFFFF" d="M159.5,236.6v12.9h-1.7v-27.1h4.8c1.3,0,2.4,0.1,3.3,0.3c0.9,0.2,1.8,0.6,2.5,1.3c1.6,1.4,2.5,3.2,2.5,5.6
			c0,1-0.2,2-0.6,3c-0.4,1-1,1.8-1.7,2.4c-1.3,1.2-3.3,1.7-6,1.7L159.5,236.6L159.5,236.6z M159.5,235h3.1c1,0,1.9-0.1,2.7-0.3
			s1.5-0.6,2.1-1.2c1.2-1.1,1.8-2.4,1.8-4.1c0-0.9-0.2-1.7-0.5-2.5c-0.4-0.8-0.9-1.4-1.5-1.9c-0.6-0.5-1.3-0.8-2-0.9
			s-1.7-0.2-2.7-0.2h-2.8L159.5,235L159.5,235z"/>
		<path fill="#FFFFFF" d="M205.7,224v25.5h-1.7V224h-7v-1.6h15.8v1.6C212.7,224,205.7,224,205.7,224z"/>
		<path fill="#FFFFFF" d="M242.4,222.4v27.1h-1.7v-27.1H242.4z"/>
		<path fill="#FFFFFF" d="M294.6,225.5v2.4c-1-1.3-2.4-2.3-4.1-3.1c-1.7-0.8-3.4-1.2-5-1.2c-1.7,0-3.2,0.3-4.7,1
			c-1.5,0.7-2.8,1.6-4,2.8c-1.1,1.2-2,2.5-2.7,4c-0.6,1.5-1,3.1-1,4.7c0,1.6,0.3,3.1,1,4.5c0.6,1.5,1.5,2.7,2.7,3.9
			c1.2,1.1,2.5,2,4.1,2.7s3.1,1,4.6,1c1,0,2.2-0.2,3.3-0.5c1.2-0.4,2.3-0.8,3.3-1.5c1-0.6,1.9-1.3,2.5-2.1v2.4
			c-2.7,2.3-5.7,3.4-9,3.4c-2.5,0-4.8-0.6-7-1.9c-2.2-1.3-3.9-3-5.2-5.1c-1.3-2.1-2-4.4-2-6.9c0-2.5,0.6-4.8,1.9-7
			c1.3-2.1,3-3.8,5.2-5.1c2.2-1.3,4.5-1.9,7.1-1.9c1.1,0,2.2,0.1,3.2,0.4c1.1,0.3,2.1,0.7,3.1,1.2S293.8,224.8,294.6,225.5z"/>
		<path fill="#FFFFFF" d="M374.3,225.8l-1.2,1c-1.3-2.1-3.2-3.2-5.5-3.2c-0.9,0-1.8,0.2-2.6,0.7c-0.8,0.5-1.4,1.1-1.8,1.9
			c-0.4,0.8-0.7,1.7-0.7,2.6c0,1.2,0.4,2.2,1.3,2.9c0.8,0.7,2.1,1.4,3.6,2.2l5.2,2.7c2.1,1.3,3.1,3.1,3.1,5.4c0,1.5-0.4,2.8-1.2,4
			s-1.8,2.2-3.2,2.8s-2.7,1-4.1,1c-1.9,0-3.5-0.5-4.9-1.6c-1.4-1.1-2.4-2.5-3.1-4.3l1.5-0.7c0.6,1.5,1.5,2.7,2.6,3.6
			c1.1,0.9,2.4,1.3,4,1.3c1.2,0,2.3-0.3,3.3-0.9s1.8-1.3,2.5-2.3s0.9-2.1,0.9-3.2c0-0.9-0.3-1.7-0.8-2.4s-1.1-1.2-1.8-1.6
			s-1.6-0.9-2.9-1.5l-4.9-2.6c-1.9-1.2-2.8-2.8-2.8-4.9c0-1.3,0.3-2.5,0.9-3.6s1.4-1.9,2.5-2.4c1.1-0.6,2.3-0.9,3.6-0.9
			c1.4,0,2.7,0.3,3.9,1C372.7,223.7,373.7,224.7,374.3,225.8z"/>
		<path fill="#FFFFFF" d="M417.9,224h-11.2v9.9h11v1.6h-11v12.4h11.2v1.6h-13v-27.1h13V224z"/>
		<path fill="#FFFFFF" d="M452.6,236.7l8.9,12.9h-2l-8.9-12.9h-0.9v12.9H448v-27.1h3.4c1.4,0,2.6,0.1,3.6,0.2s1.8,0.5,2.6,1.1
			c1.8,1.3,2.7,3.2,2.7,5.8c0,1.5-0.3,2.8-1,3.9c-0.7,1.1-1.6,1.9-2.8,2.4C455.4,236.4,454.1,236.7,452.6,236.7z M449.8,235h2.2
			c1.1,0,2-0.1,2.7-0.2c0.7-0.2,1.4-0.5,2-1c1.3-1,1.9-2.5,1.9-4.3c0-0.7-0.1-1.3-0.3-2c-0.2-0.6-0.5-1.2-1-1.7
			c-0.4-0.5-1-0.9-1.6-1.2c-1-0.4-2.6-0.6-4.9-0.6h-1.1V235z"/>
		<path fill="#FFFFFF" d="M489.4,222.4l8.1,23.2h0.1l8-23.2h1.7l-9.9,28l-9.8-28H489.4z"/>
		<path fill="#FFFFFF" d="M537,222.4v27.1h-1.7v-27.1H537z"/>
		<path fill="#FFFFFF" d="M589.2,225.5v2.4c-1-1.3-2.4-2.3-4.1-3.1s-3.4-1.2-5-1.2c-1.7,0-3.2,0.3-4.7,1c-1.5,0.7-2.8,1.6-4,2.8
			c-1.1,1.2-2,2.5-2.7,4c-0.6,1.5-1,3.1-1,4.7c0,1.6,0.3,3.1,1,4.5c0.6,1.5,1.5,2.7,2.7,3.9c1.2,1.1,2.5,2,4.1,2.7s3.1,1,4.6,1
			c1,0,2.2-0.2,3.3-0.5c1.2-0.4,2.3-0.8,3.3-1.5c1-0.6,1.9-1.3,2.5-2.1v2.4c-2.7,2.3-5.7,3.4-9,3.4c-2.5,0-4.8-0.6-7-1.9
			c-2.2-1.3-3.9-3-5.2-5.1c-1.3-2.1-2-4.4-2-6.9c0-2.5,0.6-4.8,1.9-7s3-3.8,5.2-5.1s4.5-1.9,7.1-1.9c1.1,0,2.2,0.1,3.2,0.4
			c1.1,0.3,2.1,0.7,3.1,1.2C587.5,224.2,588.4,224.8,589.2,225.5z"/>
		<path fill="#FFFFFF" d="M632.1,224h-11.2v9.9h11v1.6h-11v12.4h11.2v1.6h-13v-27.1h13V224z"/>
	</g>
</g>
<g id="Layer_2">
	<g>
		<path fill="#ED1C24" d="M206.6,183.9c-1.1-0.9-2.3-5-2.3-11.7c0-6.7,1.5-12.6,2.3-13.3c0.8-0.7,51.7-0.7,52.5,0
			c0.9,0.7,2.1,6,2.1,13.3s-1.2,11-2.1,11.7C258.4,184.6,207.7,184.8,206.6,183.9z"/>
		<path d="M230.3,186.7c-23.7,0-24.3-0.5-25.1-1.1c-2.8-2.4-3-10.8-3-13.4c0-5.2,1.1-13.2,3-14.9c0.7-0.6,0.9-0.8,10-0.9
			c4.9-0.1,11.4-0.1,18.2-0.1c6.7,0,12.9,0,17.5,0.1c8.7,0.2,8.9,0.3,9.6,0.9c2.2,1.9,2.8,10.3,2.8,14.9c0,6.9-1,11.8-2.8,13.4
			c-0.7,0.6-0.9,0.8-10.8,1C244.3,186.6,237.2,186.7,230.3,186.7z M207.9,182c2.2,0.2,9.6,0.4,22.4,0.4c13.7,0,24.6-0.2,27.6-0.4
			c0.4-1.1,1.2-4.1,1.2-9.7c0-6-0.8-9.9-1.3-11.3c-2.7-0.2-11.2-0.4-24.3-0.4c-13.2,0-22.6,0.2-25.5,0.4c-0.6,1.7-1.5,6.2-1.5,11.3
			C206.5,177.6,207.3,180.8,207.9,182z"/>
	</g>
	<g>
		<path fill="#B3B3B3" d="M206.2,201.6c-0.3-0.2-0.7-1.3-0.7-3s0.5-3.2,0.7-3.4c0.3-0.2,16.3-0.2,16.6,0c0.3,0.2,0.6,1.5,0.6,3.4
			s-0.4,2.8-0.6,3C222.5,201.7,206.5,201.8,206.2,201.6z"/>
		<path d="M213.7,203.9c-7.9,0-8-0.1-8.7-0.5c-1.4-1-1.6-3.1-1.6-4.8c0-0.4,0-4.1,1.6-5.2c0.7-0.5,0.8-0.5,9.7-0.5
			c8.6,0,8.7,0.1,9.3,0.5c1.3,0.9,1.6,3.3,1.6,5.2c0,1.7-0.3,3.9-1.6,4.8C223.4,203.8,223.2,203.9,213.7,203.9z M207.7,199.5
			c1.2,0,3.2,0.1,6,0.1c3.2,0,6,0,7.6-0.1c0-0.3,0-0.6,0-0.9c0-0.5,0-1-0.1-1.4c-1.3,0-3.6-0.1-6.5-0.1c-3.1,0-5.5,0-6.9,0.1
			c-0.1,0.4-0.1,0.8-0.1,1.4C207.6,198.9,207.7,199.2,207.7,199.5z"/>
	</g>
	<g>
		<path fill="#ED1C24" d="M199,201.6c0,0,0-38.7,0-42c-1-1.8-15.8-1.6-17.7,0.3c-1.9,1.9-2.5,8.9-4.3,10.7
			c-1.8,1.8-16.2,2.9-17.8,4.5c-1.6,1.6-2.4,26.3-1.5,26.4c1.9,0.2,6.3,0,6.3,0s0.5-11.2,11.7-11.2c11.2,0,11.5,11.5,11.5,11.5
			L199,201.6z"/>
		<path d="M185.7,203.9l-0.2-2.1c0-1-0.8-9.4-9.6-9.4c-9.1,0-9.6,8.8-9.6,9.1l-0.1,2l-2,0.1c-0.1,0-2,0.1-3.9,0.1
			c-1.2,0-2,0-2.7-0.1c-0.9-0.1-1.6-0.7-1.9-1.6c-0.7-2-0.3-12.2-0.2-14.2c0.6-12.7,1.7-13.7,2.3-14.3c1.1-1.1,3.5-1.6,9.6-2.7
			c2.7-0.5,7.3-1.3,8.3-1.8c0.5-0.6,1.1-2.9,1.5-4.2c0.7-2.6,1.4-5,2.8-6.4c2-2,8.7-2.2,11.5-2.2c7.7,0,9.3,1.4,9.7,1.9l0.9,0.6v45
			L185.7,203.9z M175.8,188.1c9.1,0,12.6,6.6,13.5,11.5l7.7-0.1V161c-1-0.2-2.9-0.5-5.7-0.5c-4.4,0-7.7,0.6-8.5,1
			c-0.6,0.7-1.2,2.9-1.6,4.5c-0.7,2.5-1.4,4.9-2.7,6.1c-1.3,1.3-4.2,1.9-10.6,3c-2.4,0.4-5.9,1-7.1,1.5c-0.9,3.1-1.6,17.9-1.4,22.8
			c0.2,0,0.4,0,0.7,0c0.7,0,1.3,0,1.9,0C163.1,194.6,166.6,188.1,175.8,188.1z"/>
	</g>
	<g>
		<circle fill="#B3B3B3" cx="175.6" cy="201.6" r="6.4"/>
		<path d="M175.6,210.2c-4.7,0-8.6-3.8-8.6-8.6s3.8-8.6,8.6-8.6c4.7,0,8.6,3.8,8.6,8.6S180.3,210.2,175.6,210.2z M175.6,197.3
			c-2.4,0-4.3,1.9-4.3,4.3s1.9,4.3,4.3,4.3c2.4,0,4.3-1.9,4.3-4.3S177.9,197.3,175.6,197.3z"/>
	</g>
	<g>
		<circle fill="#B3B3B3" cx="235.3" cy="201.6" r="6.4"/>
		<path d="M235.3,210.2c-4.7,0-8.6-3.8-8.6-8.6s3.9-8.6,8.6-8.6c4.7,0,8.6,3.8,8.6,8.6S240.1,210.2,235.3,210.2z M235.3,197.3
			c-2.4,0-4.3,1.9-4.3,4.3s1.9,4.3,4.3,4.3s4.3-1.9,4.3-4.3S237.7,197.3,235.3,197.3z"/>
	</g>
	<g>
		<circle fill="#B3B3B3" cx="254.8" cy="201.6" r="6.4"/>
		<path d="M254.8,210.2c-4.7,0-8.6-3.8-8.6-8.6s3.9-8.6,8.6-8.6s8.6,3.8,8.6,8.6S259.6,210.2,254.8,210.2z M254.8,197.3
			c-2.4,0-4.3,1.9-4.3,4.3s1.9,4.3,4.3,4.3s4.3-1.9,4.3-4.3S257.2,197.3,254.8,197.3z"/>
	</g>
	<path d="M261.3,192h-56.9c-1.2,0-2.2-0.8-2.2-2s1-2,2.2-2h56.9c1.2,0,2.2,0.8,2.2,2S262.5,192,261.3,192z"/>
</g>
</svg>
