<?xml version="1.0" encoding="utf-8"?>
<!-- Generator: Adobe Illustrator 16.0.0, SVG Export Plug-In . SVG Version: 6.00 Build 0)  -->
<!DOCTYPE svg PUBLIC "-//W3C//DTD SVG 1.1//EN" "http://www.w3.org/Graphics/SVG/1.1/DTD/svg11.dtd">
<svg version="1.1" id="Layer_1" xmlns="http://www.w3.org/2000/svg" xmlns:xlink="http://www.w3.org/1999/xlink" x="0px" y="0px"
	 width="220px" height="220px" viewBox="0 0 220 220" enable-background="new 0 0 220 220" xml:space="preserve">
<g>
	<path fill="none" d="M12.255,109.999c0-15.798,3.803-30.708,10.541-43.864C16.057,79.291,12.255,94.202,12.255,109.999
		L12.255,109.999L12.255,109.999z"/>
	<polygon fill="none" points="204.962,110 204.962,110 204.962,110 	"/>
	<path fill="none" d="M194.438,153.831c6.729-13.148,10.523-28.047,10.523-43.832l0,0
		C204.962,125.784,201.167,140.683,194.438,153.831z"/>
	<path fill="none" d="M194.421,153.866c-0.148,0.289-0.305,0.574-0.455,0.863C194.116,154.44,194.272,154.155,194.421,153.866z"/>
	<path fill="none" d="M25.781,60.754c0.142-0.239,0.279-0.48,0.424-0.718C26.06,60.274,25.922,60.515,25.781,60.754z"/>
	<path fill="none" d="M12.255,110L12.255,110c0,53.216,43.139,96.355,96.353,96.355l0,0C55.395,206.354,12.256,163.218,12.255,110z"
		/>
	<path fill="none" d="M191.653,158.88c0.514-0.871,1.016-1.748,1.504-2.635C192.671,157.132,192.167,158.009,191.653,158.88z"/>
	<polygon fill="none" points="108.608,206.354 108.61,206.354 108.608,206.354 	"/>
	<path fill="#E9AC21" d="M193.966,154.729c0.15-0.289,0.307-0.574,0.455-0.863c0.006-0.012,0.012-0.023,0.018-0.035
		c6.729-13.148,10.523-28.047,10.523-43.832h-96.354v96.355c0,0,0,0,0.002,0c35.371,0,66.287-19.064,83.043-47.475
		c0.514-0.871,1.018-1.748,1.504-2.635C193.431,155.743,193.7,155.237,193.966,154.729z"/>
	<path fill="#1A1A1A" d="M193.966,154.729c-0.266,0.508-0.535,1.014-0.809,1.516C193.431,155.743,193.7,155.237,193.966,154.729z"/>
	<path fill="#1A1A1A" d="M22.796,66.134c0.938-1.83,1.936-3.621,2.984-5.38C24.732,62.513,23.734,64.304,22.796,66.134z"/>
	<path fill="#1A1A1A" d="M194.438,153.831c-0.006,0.012-0.012,0.023-0.018,0.035C194.427,153.854,194.433,153.843,194.438,153.831z"
		/>
	<path fill="#1A1A1A" d="M108.608,13.646c53.215,0,96.354,43.139,96.354,96.354v-0.001c0-53.214-43.137-96.354-96.352-96.354
		c-34.923,0-65.506,18.579-82.406,46.392C43.104,32.224,73.687,13.646,108.608,13.646z"/>
	<path fill="#F1F2F2" d="M12.255,110h96.353V13.646c-34.921,0-65.504,18.578-82.404,46.391c-0.145,0.237-0.282,0.479-0.424,0.718
		c-1.049,1.759-2.047,3.55-2.984,5.38C16.058,79.291,12.255,94.201,12.255,110L12.255,110z"/>
	<path fill="#ED1C24" d="M108.608,13.646V110h96.354l0,0C204.962,56.785,161.823,13.646,108.608,13.646z"/>
	<path fill="#1A1A1A" d="M108.608,206.354V110H12.255C12.256,163.218,55.395,206.354,108.608,206.354z"/>
</g>
<linearGradient id="SVGID_1_" gradientUnits="userSpaceOnUse" x1="92.8306" y1="96.9702" x2="175.0214" y2="179.161">
	<stop  offset="0" style="stop-color:#000000"/>
	<stop  offset="0.2057" style="stop-color:#303030;stop-opacity:0.7943"/>
	<stop  offset="0.6704" style="stop-color:#A7A7A7;stop-opacity:0.3296"/>
	<stop  offset="1" style="stop-color:#FFFFFF;stop-opacity:0"/>
</linearGradient>
<polygon opacity="0.7" fill="url(#SVGID_1_)" points="160.741,77.565 207.745,124.571 169.512,184.67 111.841,203.296 
	49.172,140.628 "/>
<circle fill="none" stroke="#1E1E1E" stroke-width="17" stroke-miterlimit="10" cx="108.609" cy="110" r="96.353"/>
<g>
	<polygon fill="#F2F2F2" points="105.735,103.201 133.149,88.595 78.319,88.595 	"/>
	<polygon fill="#F2F2F2" points="60.297,131.405 66.57,131.405 99.702,113.584 60.297,92.59 	"/>
	<path fill="#1E1E1E" d="M162.485,79.816c-0.004-0.007-0.006-0.014-0.01-0.021C162.479,79.802,162.481,79.809,162.485,79.816
		L162.485,79.816z"/>
	<path fill="#1E1E1E" d="M53.683,76.626c0.007-0.001,0.014,0,0.021-0.002C53.697,76.626,53.69,76.625,53.683,76.626z"/>
	<path fill="#1E1E1E" d="M157.649,76.619c0.613,0.051,1.217,0.19,1.785,0.422C158.876,76.812,158.276,76.669,157.649,76.619z"/>
	<path fill="#1E1E1E" d="M159.464,77.051c0.139,0.058,0.271,0.123,0.406,0.19C159.737,77.174,159.603,77.109,159.464,77.051z"/>
	<path fill="#1E1E1E" d="M52.124,77.007c0.14-0.054,0.279-0.107,0.422-0.15C52.402,76.9,52.262,76.954,52.124,77.007z"/>
	<path fill="#1E1E1E" d="M51.665,77.21c0.11-0.055,0.219-0.109,0.332-0.156C51.883,77.101,51.774,77.156,51.665,77.21z"/>
	<path fill="#1E1E1E" d="M52.616,76.838c0.162-0.047,0.325-0.091,0.49-0.124C52.94,76.748,52.777,76.792,52.616,76.838z"/>
	<path fill="#1E1E1E" d="M160.503,77.607c0.07,0.045,0.135,0.098,0.201,0.146C160.638,77.705,160.573,77.653,160.503,77.607z"/>
	<path fill="#1E1E1E" d="M161.798,78.777c0.25,0.303,0.475,0.635,0.666,0.995C162.274,79.417,162.052,79.083,161.798,78.777z"/>
	<path fill="#1E1E1E" d="M161.409,78.349c0.035,0.035,0.068,0.075,0.104,0.112C161.478,78.424,161.444,78.384,161.409,78.349z"/>
	<path fill="#1E1E1E" d="M160.976,77.957c0.045,0.037,0.088,0.079,0.131,0.117C161.063,78.036,161.022,77.994,160.976,77.957z"/>
	<path fill="#1E1E1E" d="M159.997,77.302c0.1,0.055,0.197,0.117,0.295,0.176C160.194,77.418,160.099,77.357,159.997,77.302z"/>
	<path fill="#1E1E1E" d="M48.297,82.595v0.021c0-0.037,0.004-0.072,0.004-0.108C48.301,82.538,48.297,82.566,48.297,82.595z"/>
	<path fill="#1E1E1E" d="M48.75,80.31c0.067-0.162,0.144-0.322,0.226-0.48C48.895,79.986,48.819,80.146,48.75,80.31z"/>
	<path fill="#1E1E1E" d="M48.554,80.863c0.039-0.131,0.087-0.26,0.136-0.389C48.642,80.603,48.593,80.73,48.554,80.863z"/>
	<path fill="#1E1E1E" d="M49.006,79.768c0.092-0.172,0.191-0.337,0.297-0.497C49.197,79.431,49.097,79.597,49.006,79.768z"/>
	<path fill="#1E1E1E" d="M48.327,82.007c0.007-0.066,0.02-0.133,0.028-0.199C48.346,81.875,48.333,81.94,48.327,82.007z"/>
	<path fill="#1E1E1E" d="M48.413,81.427c0.02-0.1,0.047-0.197,0.072-0.296C48.46,81.23,48.433,81.328,48.413,81.427z"/>
	<path fill="#1E1E1E" d="M49.319,79.246c0.08-0.119,0.169-0.23,0.256-0.342C49.487,79.015,49.399,79.127,49.319,79.246z"/>
	<path fill="#1E1E1E" d="M50.821,77.711c0.046-0.032,0.09-0.069,0.137-0.101C50.911,77.642,50.867,77.679,50.821,77.711z"/>
	<path fill="#1E1E1E" d="M50.43,78.011c0.02-0.016,0.036-0.033,0.056-0.049C50.466,77.978,50.45,77.996,50.43,78.011z"/>
	<path fill="#1E1E1E" d="M51.231,77.445c0.078-0.047,0.154-0.096,0.233-0.139C51.385,77.349,51.309,77.398,51.231,77.445z"/>
	<path fill="#1E1E1E" d="M99.702,113.584l62.783-33.768c-0.004-0.007-0.006-0.014-0.01-0.021s-0.006-0.015-0.01-0.021
		c0-0.001-0.002-0.001-0.002-0.001c-0.191-0.361-0.416-0.693-0.666-0.996c-0.09-0.111-0.188-0.213-0.285-0.315
		c-0.035-0.037-0.068-0.077-0.104-0.112c-0.098-0.098-0.199-0.186-0.303-0.275c-0.043-0.038-0.086-0.08-0.131-0.117
		c-0.088-0.072-0.18-0.137-0.271-0.203c-0.066-0.049-0.131-0.102-0.201-0.146c-0.068-0.046-0.141-0.086-0.211-0.129
		c-0.098-0.059-0.195-0.121-0.295-0.176c-0.043-0.021-0.086-0.039-0.127-0.061c-0.135-0.067-0.268-0.133-0.406-0.19
		c-0.01-0.005-0.02-0.007-0.029-0.011c-0.568-0.231-1.172-0.371-1.785-0.422c-0.154-0.012-0.309-0.021-0.465-0.023
		c-0.004,0-0.01,0-0.014,0H54.297c-0.002,0-0.005,0-0.007,0c-0.196,0.001-0.392,0.01-0.586,0.029
		c-0.008,0.002-0.015,0.001-0.021,0.002c-0.194,0.02-0.387,0.049-0.577,0.088c-0.165,0.033-0.328,0.077-0.49,0.124
		c-0.023,0.007-0.047,0.011-0.07,0.019c-0.143,0.043-0.282,0.097-0.422,0.15c-0.042,0.017-0.085,0.029-0.127,0.047
		c-0.113,0.047-0.222,0.102-0.332,0.156c-0.066,0.032-0.135,0.061-0.2,0.096c-0.079,0.043-0.155,0.092-0.233,0.139
		c-0.092,0.055-0.185,0.106-0.273,0.166c-0.047,0.031-0.091,0.068-0.137,0.101c-0.113,0.081-0.227,0.161-0.335,0.251
		c-0.02,0.016-0.036,0.033-0.056,0.049c-0.312,0.264-0.598,0.562-0.855,0.893c-0.087,0.111-0.176,0.223-0.256,0.342
		c-0.005,0.008-0.01,0.018-0.016,0.025c-0.105,0.16-0.205,0.325-0.297,0.497c-0.002,0.002-0.003,0.004-0.004,0.006
		c-0.01,0.019-0.017,0.037-0.026,0.056c-0.082,0.158-0.158,0.318-0.226,0.48c-0.022,0.055-0.039,0.109-0.061,0.164
		c-0.049,0.129-0.097,0.258-0.136,0.389c-0.027,0.089-0.047,0.179-0.069,0.269c-0.025,0.099-0.053,0.196-0.072,0.296
		c-0.024,0.127-0.041,0.254-0.058,0.381c-0.009,0.066-0.021,0.133-0.028,0.199c-0.016,0.167-0.022,0.334-0.025,0.501
		c0,0.036-0.004,0.071-0.004,0.108c0,0.012,0,0.025,0,0.038v54.75c0,1.217,0.365,2.35,0.989,3.295l17.283-9.295h-6.272V92.59
		L99.702,113.584z M133.149,88.595l-27.414,14.605L78.319,88.595H133.149z"/>
	<path fill="#F2F2F2" d="M151.171,131.405V92.59l-42.615,22.705c-0.881,0.471-1.852,0.705-2.82,0.705
		c-0.971,0-1.939-0.234-2.822-0.705l-3.211-1.711L66.57,131.405H151.171z"/>
	<path opacity="0.2" d="M151.171,131.405V92.59l-42.615,22.705c-0.881,0.471-1.852,0.705-2.82,0.705
		c-0.971,0-1.939-0.234-2.822-0.705l-3.211-1.711L66.57,131.405H151.171z"/>
	<path fill="#1E1E1E" d="M54.297,143.405h102.874c3.314,0,6-2.688,6-6v-54.75c0-0.013,0-0.026,0-0.038v-0.021
		c0-0.029-0.004-0.058-0.004-0.087c-0.004-0.167-0.01-0.333-0.025-0.501c-0.008-0.068-0.02-0.135-0.029-0.203
		c-0.016-0.125-0.033-0.251-0.057-0.377c-0.021-0.102-0.049-0.199-0.074-0.299c-0.021-0.089-0.041-0.178-0.066-0.266
		c-0.043-0.137-0.092-0.27-0.143-0.402c-0.02-0.05-0.033-0.1-0.055-0.148c-0.068-0.17-0.148-0.334-0.232-0.496l0,0l-62.783,33.768
		l3.211,1.711c0.883,0.471,1.852,0.705,2.822,0.705c0.969,0,1.939-0.234,2.82-0.705l42.615-22.705v38.815H66.57L49.287,140.7
		C50.36,142.329,52.203,143.405,54.297,143.405z"/>
	<path opacity="0.5" d="M54.297,143.405h102.874c3.314,0,6-2.688,6-6v-54.75c0-0.013,0-0.026,0-0.038v-0.021
		c0-0.029-0.004-0.058-0.004-0.087c-0.004-0.167-0.01-0.333-0.025-0.501c-0.008-0.068-0.02-0.135-0.029-0.203
		c-0.016-0.125-0.033-0.251-0.057-0.377c-0.021-0.102-0.049-0.199-0.074-0.299c-0.021-0.089-0.041-0.178-0.066-0.266
		c-0.043-0.137-0.092-0.27-0.143-0.402c-0.02-0.05-0.033-0.1-0.055-0.148c-0.068-0.17-0.148-0.334-0.232-0.496l0,0l-62.783,33.768
		l3.211,1.711c0.883,0.471,1.852,0.705,2.822,0.705c0.969,0,1.939-0.234,2.82-0.705l42.615-22.705v38.815H66.57L49.287,140.7
		C50.36,142.329,52.203,143.405,54.297,143.405z"/>
</g>
</svg>
